# This file uses centimeters as units for non-parametric coordinates.

mtllib Volcano.mtl
g default
v -5.363693 -0.500000 4.366875
v 5.455655 -0.500000 4.383860
v -4.955099 0.500000 4.025185
v 4.804453 0.500000 3.685392
v -4.592173 0.500000 -3.969153
v 4.823913 0.500000 -3.867724
v -5.423876 -0.499526 -4.403187
v 5.481015 -0.500000 -4.476987
v -1.492414 4.090187 1.358194
v 1.492414 4.006740 1.358194
v 1.388225 4.056488 -1.273904
v -1.492414 4.101159 -1.358194
v -1.066405 4.265008 1.046376
v 1.066405 4.265008 1.046376
v 1.066405 4.265008 -1.046376
v -1.066405 4.265008 -1.046376
v 4.098648 1.205377 -3.377521
v 4.320168 1.205377 3.527951
v -4.320168 1.205377 3.527951
v -4.320168 1.205377 -3.527951
v 3.506044 1.995495 -2.656800
v 3.208493 1.995495 2.970981
v -3.284052 2.127834 3.069757
v -3.209492 1.995495 -2.970981
v 2.579675 2.861305 -2.166764
v 2.798880 2.861305 2.360655
v -2.798880 2.861305 2.360655
v -2.956724 2.861305 -2.285350
v 2.025721 3.560834 -1.679528
v 1.923730 3.560834 1.734043
v -2.156229 3.618653 1.990229
v -2.156229 3.560834 -1.867544
v 2.380998 3.560834 0.936882
v 2.798880 2.861305 1.184258
v 4.004496 1.995495 1.490437
v 4.320168 1.205377 1.769850
v 5.189866 0.718414 2.019294
v 6.192985 -0.500000 2.357322
v -6.124842 -0.500000 2.357322
v -4.968191 0.500000 2.019294
v -4.709634 1.205377 1.769850
v -3.274859 1.995495 1.490437
v -3.254307 2.745870 1.184258
v -2.156229 3.560834 0.936882
v -1.492414 4.193568 0.681358
v -1.066405 4.265008 0.524930
v 1.066405 4.265008 0.524930
v 1.492414 4.082278 0.681358
v 2.410594 3.560834 -1.046452
v 2.798880 2.861305 -1.322759
v 3.983988 1.995495 -1.664747
v 4.320168 1.205377 -1.976837
v 5.271058 0.608932 -2.255456
v 6.192985 -0.500000 -3.081589
v -5.751272 -0.731781 -3.081589
v -5.003845 0.500000 -2.255456
v -4.692671 1.205377 -1.976837
v -3.594292 1.995495 -1.664747
v -3.254307 2.745870 -1.322759
v -2.156229 3.560834 -1.046452
v -1.492414 4.193568 -0.761045
v -1.066405 4.265008 -0.586322
v 1.066405 4.265008 -0.586322
v 1.492414 4.110749 -0.761045
v 2.156229 3.560834 -0.059981
v 3.145935 2.861305 -0.102328
v 3.594292 1.995495 -0.154741
v 4.668975 1.205377 -0.202572
v 4.968191 0.500000 -0.245274
v 6.487367 -0.500000 -0.328647
v -6.454713 -0.500000 -0.276460
v -5.622913 0.500000 -0.245274
v -4.320168 1.205377 -0.202572
v -3.962783 1.995495 -0.154741
v -2.798880 2.861305 -0.102328
v -2.528718 3.560834 -0.059981
v -1.492414 4.111860 -0.016239
v -1.066405 4.265008 0.010539
v 1.066405 4.265008 0.010539
v 1.790192 4.089966 -0.016239
v -0.798859 4.162221 1.358194
v -0.570825 4.265008 1.046376
v -0.570825 3.956890 0.524930
v -0.570825 3.956890 0.010539
v -0.570825 3.956890 -0.586322
v -0.570825 4.265008 -1.046376
v -0.798859 4.135023 -1.358194
v -1.154185 3.560834 -2.151590
v -1.498183 2.861305 -2.360655
v -1.628563 1.995495 -3.306051
v -2.312497 1.205377 -3.527951
v -2.599917 0.500000 -4.438928
v -3.017715 -0.500000 -5.219793
v -2.657024 -0.677924 -3.081589
v -3.339406 -0.500000 -0.551308
v -3.045235 -0.500000 2.357322
v -3.339405 -0.500000 5.387005
v -2.649321 0.500000 4.398218
v -2.312497 1.205377 3.527951
v -1.685798 1.995495 3.325255
v -1.498183 2.861305 2.360655
v -1.154185 3.560834 2.131547
v 0.031343 4.047587 1.358194
v 0.022397 4.265008 1.046376
v 0.022397 3.956890 0.524930
v 0.022397 3.956890 0.010539
v 0.022397 3.956890 -0.586322
v 0.022397 4.265008 -1.046376
v 0.031343 4.078354 -1.358194
v 0.045285 3.560834 -1.867544
v 0.058782 2.861305 -2.683235
v 0.263846 1.995495 -2.970981
v 0.090732 1.205377 -4.010078
v 0.142253 0.500000 -4.025185
v 0.239728 -0.500000 -5.484409
v 0.469730 -0.613457 -3.081589
v 0.034597 -0.500000 -0.551308
v 0.222180 -0.500000 2.357322
v 0.034597 -0.500000 5.826402
v 0.110750 0.500000 4.025185
v 0.090732 1.205377 3.804383
v 0.227349 1.995495 2.970981
v 0.058782 2.861305 2.649720
v 0.045285 3.560834 1.867544
v 0.892024 4.122022 1.358194
v 0.637396 4.265008 1.046376
v 0.637396 3.956890 0.524930
v 0.637396 3.956890 0.010539
v 0.637396 3.956890 -0.586322
v 0.637396 4.265008 -1.046376
v 0.892024 4.109717 -1.358194
v 1.288790 3.560834 -2.151590
v 1.672906 2.861305 -2.360655
v 2.225730 1.995495 -3.306050
v 2.582188 1.205377 -3.527951
v 2.985094 0.500000 -4.438928
v 3.616759 -0.500000 -5.267461
v 3.711272 -0.546622 -3.081589
v 3.532465 -0.500000 -0.551308
v 3.609548 -0.500000 2.357322
v 3.532465 -0.500000 5.387005
v 2.972149 0.500000 4.398218
v 2.582188 1.205377 3.527951
v 2.210732 1.995495 3.325255
v 1.672906 2.861305 2.360655
v 1.288790 3.560834 2.107815
vt 1.643137 0.046481
vt 1.308702 0.000000
vt 1.298609 0.000000
vt 1.680514 0.000000
vt 1.083243 0.246515
vt 1.560129 0.209863
vt 0.375000 0.750000
vt 0.625000 0.750000
vt 0.375000 1.000000
vt 0.625000 1.000000
vt 1.088573 0.232724
vt 1.427638 0.357896
vt 1.544595 0.246515
vt 1.010610 0.387680
vt 1.414971 0.387680
vt 1.014334 0.357896
vt 0.690378 0.967627
vt 0.849335 0.967209
vt 0.375000 0.250000
vt 0.625000 0.250000
vt 0.625000 0.500000
vt 0.375000 0.500000
vt 0.849492 0.956239
vt 0.766407 1.000000
vt 0.693664 0.985703
vt 0.648116 1.000000
vt 0.643822 1.000000
vt 1.279230 0.523713
vt 0.768048 1.000000
vt 0.929251 0.545806
vt 0.931175 0.523713
vt 1.116604 0.705414
vt 1.269774 0.545806
vt 0.840098 0.695977
vt 0.840050 0.705414
vt 0.985212 0.852220
vt 1.110668 0.719079
vt 0.768067 0.859075
vt 0.766427 0.852220
vt -0.141419 0.705414
vt 0.172040 0.705414
vt 0.237955 0.852220
vt -0.010026 0.852220
vt -0.304044 0.523713
vt 0.625000 0.937708
vt 0.090456 0.523713
vt 0.982118 0.859075
vt 0.375000 0.937708
vt -0.031144 0.246515
vt -0.119265 0.046386
vt -0.643137 0.046386
vt -0.554062 0.246515
vt 0.033883 0.387680
vt -0.424437 0.387680
vt 0.106724 0.545806
vt 0.375000 0.312292
vt 0.625000 0.312292
vt -0.452452 0.357896
vt 0.016005 0.357896
vt -0.584943 0.209863
vt -0.050461 0.255700
vt -0.680514 0.000000
vt -0.140531 0.000000
vt 0.125693 0.945799
vt 0.625000 0.804958
vt 0.306041 0.961652
vt -0.279240 0.545806
vt 0.375000 0.804958
vt 0.186542 0.695977
vt -0.120134 0.719079
vt 0.251031 0.859075
vt 0.008415 0.859075
vt 0.317643 0.985703
vt 0.141198 0.965013
vt 0.358422 1.000000
vt 0.375000 0.445042
vt 0.625000 0.445042
vt 0.347722 1.000000
vt 0.208779 1.000000
vt 0.514859 0.705414
vt 0.503575 0.852220
vt 0.528825 0.523713
vt 0.541569 0.357896
vt 0.552948 0.209863
vt 0.625000 0.864265
vt 0.575163 0.000000
vt 0.222486 1.000000
vt 0.375000 0.864265
vt 0.567337 0.046386
vt 0.559207 0.246515
vt 0.548076 0.387680
vt 0.535607 0.545806
vt 0.521943 0.719079
vt 0.510903 0.859075
vt 0.499500 0.969351
vt 0.375000 0.385735
vt 0.625000 0.385735
vt 0.491920 0.963265
vt -0.712998 -0.010278
vt 0.433090 0.250000
vt 0.433090 0.312292
vt 0.433090 0.385735
vt 0.433090 0.445042
vt 0.433090 0.500000
vt -0.624488 0.209863
vt -0.100837 0.209863
vt -0.196340 0.000000
vt -0.746356 0.000099
vt -0.494063 0.357896
vt -0.035136 0.357896
vt 0.433090 0.750000
vt 0.433090 0.804958
vt 0.433090 0.864265
vt 0.433090 0.937708
vt -0.259097 -0.010278
vt 0.433090 1.000000
vt -0.104361 0.203899
vt -0.621381 0.203899
vt -0.028836 0.354975
vt -0.479011 0.354975
vt 0.155049 0.972835
vt 0.310563 0.988263
vt 0.502625 0.250000
vt 0.502625 0.312292
vt 0.502625 0.385735
vt 0.502625 0.445042
vt 0.502625 0.500000
vt 0.310861 0.972721
vt 0.152324 0.965614
vt 0.249704 1.000000
vt 0.362987 1.000000
vt -0.240177 0.523713
vt 0.121202 0.523713
vt 0.502625 0.750000
vt 0.502625 0.804958
vt 0.502625 0.864265
vt 0.502625 0.937708
vt 0.361695 1.010278
vt 0.502625 1.000000
vt 0.250572 1.010278
vt 0.111687 0.524200
vt -0.246686 0.524200
vt 0.153756 0.709637
vt -0.137897 0.709637
vt 0.230889 0.859460
vt 0.574713 0.250000
vt 0.574713 0.312292
vt 0.574713 0.385735
vt 0.574713 0.445042
vt 0.574713 0.500000
vt -0.146317 0.705414
vt 0.151005 0.705414
vt 0.000584 0.852220
vt 0.229638 0.852220
vt 0.500634 0.960828
vt 0.498589 1.000000
vt 0.574713 0.750000
vt 0.574713 0.804958
vt 0.574713 0.864265
vt 0.574713 0.937708
vt 0.006204 0.859460
vt 0.574713 1.000000
vt 0.496718 0.963711
vt 0.494712 1.010278
vt 0.497447 -0.010278
vt 0.514523 0.203899
vt 0.510034 0.354975
vt 0.540668 0.524200
vt 0.502870 0.709637
vt 0.499844 0.859460
vt 0.689706 0.979653
vt 0.632611 1.010278
vt 1.281766 -0.010278
vt 1.156127 0.203899
vt 1.068687 0.354975
vt 0.985397 0.524200
vt 0.864801 0.709637
vt 0.778672 0.859460
vt 0.824330 0.954963
vt 0.728807 1.010278
vt 1.712998 -0.010278
vt 1.603696 0.203899
vt 1.458391 0.354975
vt 1.295630 0.524200
vt 1.117276 0.709637
vt 0.973176 0.859460
vt 0.503821 0.852220
vt 0.506906 0.705414
vt 0.553781 0.523713
vt 0.514210 0.357896
vt 0.525987 0.209863
vt 0.548268 0.000000
vt 0.697374 0.967410
vt 0.639170 1.000000
vt 0.788070 0.852220
vt 0.875873 0.705414
vt 1.002241 0.523713
vt 1.083723 0.357896
vt 1.175822 0.209863
vt 1.320212 0.000000
vt 0.834615 0.956239
vt 0.737235 1.000000
vt 0.986354 0.852220
vt 1.133256 0.705414
vt 1.315076 0.523713
vt 1.481002 0.357896
vt 1.629132 0.209863
vt 1.746356 0.000000
vt 0.492520 1.000000
vt 0.484785 1.000000
vn -0.238987 0.625418 0.742791
vn -0.091829 0.755546 0.648627
vn -0.085872 0.759991 0.644236
vn -0.238987 0.625418 0.742791
vn 0.433706 0.891632 0.129967
vn 0.195487 0.961081 0.195211
vn 0.124693 0.881256 0.455894
vn 0.282749 0.909551 0.304583
vn -0.223584 0.604348 -0.764705
vn -0.075306 0.698615 -0.711524
vn -0.079085 0.696522 -0.713164
vn -0.223584 0.604348 -0.764705
vn -0.007830 -0.993024 -0.117653
vn 0.001812 -0.996438 -0.084306
vn 0.006928 -0.999970 0.003455
vn 0.005819 -0.999841 0.016835
vn 0.668538 0.736672 -0.101838
vn 0.666165 0.690540 -0.281741
vn 0.666165 0.690540 -0.281741
vn 0.667285 0.740476 -0.080165
vn -0.769369 0.623356 -0.139637
vn -0.756132 0.621783 -0.204083
vn -0.757119 0.621972 -0.199802
vn -0.769369 0.623356 -0.139637
vn -0.060165 0.715811 0.695698
vn -0.022893 0.665118 0.746387
vn -0.019103 0.580648 0.813930
vn -0.057020 0.596872 0.800308
vn 0.643971 0.761315 -0.075507
vn 0.561081 0.813323 -0.153926
vn 0.649678 0.737680 -0.183705
vn 0.703835 0.705817 -0.080242
vn -0.046418 0.630473 -0.774822
vn -0.082554 0.706466 -0.702915
vn -0.082020 0.628896 -0.773151
vn -0.048010 0.604633 -0.795056
vn -0.862288 0.462130 -0.207113
vn -0.752401 0.649181 -0.111610
vn -0.688176 0.719542 -0.093123
vn -0.691251 0.701306 -0.174189
vn -0.056505 0.932788 0.355968
vn 0.011299 0.906878 0.421243
vn 0.022879 0.901584 0.431999
vn -0.056505 0.932788 0.355967
vn 0.319506 0.945396 -0.064370
vn 0.393559 0.914567 -0.093152
vn 0.393559 0.914567 -0.093152
vn 0.306015 0.950186 -0.059173
vn 0.006422 0.900365 -0.435089
vn -0.026045 0.914566 -0.403598
vn -0.026045 0.914566 -0.403598
vn 0.011055 0.898173 -0.439504
vn -0.219867 0.971824 -0.084946
vn -0.244234 0.969622 -0.013503
vn -0.250948 0.967976 0.006946
vn -0.219867 0.971824 -0.084946
vn 0.671299 0.707130 -0.222089
vn 0.712789 0.695387 -0.091485
vn -0.012104 0.539062 0.842179
vn -0.034922 0.636766 0.770266
vn -0.705422 0.703072 -0.089836
vn -0.659224 0.730801 -0.177071
vn -0.088845 0.608530 -0.788542
vn -0.047880 0.612005 -0.789403
vn 0.617734 0.748431 -0.241362
vn 0.683182 0.721854 -0.110405
vn -0.012559 0.606980 0.794618
vn -0.033864 0.633085 0.773341
vn -0.769703 0.632570 -0.086099
vn -0.693742 0.712652 -0.104160
vn -0.106970 0.630547 -0.768744
vn -0.054072 0.605696 -0.793857
vn 0.609781 0.744595 -0.271561
vn 0.657253 0.742861 -0.127181
vn 0.001926 0.606145 0.795352
vn -0.053138 0.669189 0.741190
vn -0.645574 0.762348 -0.045384
vn -0.622207 0.781221 -0.050518
vn -0.124050 0.630362 -0.766325
vn -0.036906 0.651795 -0.757496
vn 0.587599 0.804345 -0.088073
vn 0.466160 0.851728 -0.239278
vn 0.039275 0.779232 0.625504
vn -0.055177 0.812531 0.580301
vn -0.586588 0.806728 -0.071446
vn -0.644438 0.763038 -0.049718
vn -0.115135 0.797515 -0.592211
vn 0.002519 0.777036 -0.629451
vn 0.666602 0.722334 0.184055
vn 0.695078 0.713050 0.091795
vn 0.650542 0.752544 0.102336
vn 0.616591 0.767671 0.174634
vn 0.674688 0.715180 0.182522
vn 0.711098 0.698078 0.083830
vn 0.662365 0.734886 0.145655
vn 0.703210 0.708073 0.064247
vn 0.635513 0.762680 0.120179
vn 0.678187 0.733020 0.052382
vn 0.713959 0.651854 0.255635
vn 0.690406 0.717675 0.091009
vn 0.686678 0.723220 0.073668
vn 0.713959 0.651854 0.255635
vn 0.000000 -1.000000 0.000000
vn 0.000000 -1.000000 0.000000
vn 0.000000 -1.000000 0.000000
vn 0.000000 -1.000000 0.000000
vn -0.718770 0.680618 0.141876
vn -0.719678 0.679638 0.141971
vn -0.754521 0.639948 0.145484
vn -0.754521 0.639948 0.145484
vn -0.666374 0.743906 0.050499
vn -0.738091 0.671846 0.062010
vn -0.819929 0.565708 0.087691
vn -0.677548 0.733423 0.054946
vn -0.677866 0.732984 0.056854
vn -0.760530 0.645175 0.073091
vn -0.815093 0.573183 0.084174
vn -0.743982 0.662413 0.087752
vn -0.657953 0.751283 0.051684
vn -0.643977 0.763361 0.050733
vn -0.589099 0.805827 0.060048
vn -0.631233 0.775324 0.020417
vn -0.251795 0.967778 -0.002136
vn -0.248015 0.968609 0.016913
vn -0.234040 0.968629 0.083567
vn -0.234040 0.968629 0.083567
vn 0.285701 0.919047 -0.271529
vn 0.127667 0.902280 -0.411815
vn 0.181134 0.961634 -0.206034
vn 0.418040 0.898545 -0.133640
vn 0.434189 0.899037 0.056674
vn 0.369854 0.926746 0.065950
vn 0.347534 0.935123 0.069032
vn 0.434189 0.899037 0.056674
vn 0.602539 0.793498 0.085482
vn 0.514153 0.833520 0.202218
vn 0.718335 0.695698 0.000124
vn 0.680409 0.732795 0.007483
vn 0.738351 0.674412 -0.002421
vn 0.734543 0.678559 -0.002099
vn 0.719413 0.694582 -0.000310
vn 0.659774 0.751458 -0.003157
vn 0.659917 0.751324 -0.004657
vn 0.005491 -0.999377 0.034871
vn 0.005386 -0.999364 0.035263
vn -0.738098 0.670130 -0.078336
vn -0.733861 0.677583 -0.048262
vn -0.660667 0.750677 0.001377
vn -0.676761 0.736038 0.015572
vn -0.724599 0.688303 0.034578
vn -0.750597 0.660600 0.014593
vn -0.668299 0.743892 -0.000197
vn -0.562518 0.826785 0.000915
vn -0.266157 0.963926 0.002531
vn -0.266057 0.963957 -0.000822
vn 0.528002 0.849243 0.000000
vn 0.272296 0.962214 0.000000
vn 0.278930 0.960140 0.018131
vn 0.278186 0.960429 0.013722
vn 0.640738 0.767694 0.010049
vn 0.003434 0.866768 0.498699
vn 0.012188 0.868364 0.495778
vn 0.000000 0.860933 -0.508719
vn 0.000000 0.958494 -0.285112
vn 0.000000 1.000000 0.000000
vn 0.000000 0.960036 0.279876
vn 0.000000 0.830869 0.556469
vn 0.004641 0.879220 -0.476393
vn 0.007762 0.879962 -0.474980
vn 0.002438 0.665511 -0.746384
vn 0.012425 0.754721 -0.655928
vn 0.000033 0.584798 -0.811179
vn 0.000180 0.606409 -0.795153
vn -0.000198 0.590110 -0.807323
vn 0.000050 0.550635 -0.834746
vn -0.002483 0.747203 -0.664592
vn -0.002731 0.747234 -0.664556
vn 0.009277 -0.998672 -0.050673
vn 0.009660 -0.999953 0.000587
vn 0.004557 -0.999755 0.021681
vn 0.000000 -1.000000 0.000000
vn 0.000000 -1.000000 0.000000
vn -0.000027 0.813404 0.581698
vn 0.000032 0.813403 0.581701
vn -0.000025 0.609427 0.792842
vn 0.000089 0.579866 0.814712
vn -0.000172 0.569110 0.822262
vn 0.001427 0.593444 0.804874
vn 0.007506 0.661535 0.749877
vn 0.018747 0.748422 0.662958
vn 0.023806 0.871562 0.489707
vn 0.006855 0.868307 0.495980
vn -0.132400 0.897234 -0.421239
vn -0.183886 0.959202 -0.214752
vn -0.283060 0.959102 0.000000
vn -0.199161 0.958462 0.204173
vn -0.129178 0.875395 0.465829
vn 0.032803 0.872812 -0.486953
vn 0.018465 0.873197 -0.487017
vn 0.095202 0.685570 -0.721755
vn 0.005784 0.788798 -0.614625
vn 0.113912 0.633427 -0.765372
vn 0.104868 0.636387 -0.764209
vn 0.085173 0.632202 -0.770107
vn 0.070612 0.651168 -0.755642
vn 0.075912 0.728209 -0.681138
vn 0.082715 0.726434 -0.682240
vn 0.011827 -0.999449 -0.031021
vn 0.010354 -0.999946 0.000296
vn 0.004413 -0.999935 0.010546
vn 0.000000 -1.000000 0.000000
vn 0.000000 -1.000000 0.000000
vn 0.107854 0.786619 0.607946
vn 0.104156 0.787754 0.607120
vn 0.055447 0.624973 0.778674
vn 0.043660 0.584402 0.810289
vn 0.035613 0.587324 0.808568
vn 0.051488 0.627708 0.776744
vn 0.056595 0.680532 0.730530
vn -0.024895 0.769710 0.637908
vn 0.098825 0.882444 0.459919
vn 0.098825 0.882444 0.459919
vn -0.325619 0.906754 -0.267897
vn -0.469387 0.873386 -0.129898
vn -0.583346 0.812224 0.000000
vn -0.485954 0.864845 0.126063
vn -0.322343 0.897630 0.300591
vn 0.094236 0.869120 -0.485541
vn 0.094236 0.869120 -0.485541
vn 0.290214 0.701023 -0.651416
vn 0.259964 0.827901 -0.496990
vn 0.265058 0.688309 -0.675259
vn 0.233919 0.667642 -0.706778
vn 0.173877 0.690347 -0.702273
vn 0.138715 0.751518 -0.644965
vn 0.256895 0.667779 -0.698625
vn 0.256895 0.667779 -0.698625
vn 0.013652 -0.999777 -0.016090
vn 0.009696 -0.999951 0.001930
vn 0.003697 -0.999986 0.003887
vn 0.000000 -1.000000 0.000000
vn 0.000000 -1.000000 0.000000
vn 0.291081 0.713754 0.637046
vn 0.291081 0.713754 0.637046
vn 0.150235 0.641262 0.752471
vn 0.134764 0.592075 0.794535
vn 0.114462 0.610608 0.783618
vn 0.133222 0.676086 0.724679
vn 0.194051 0.702117 0.685110
vn 0.239544 0.804446 0.543586
s 1
g Volcano
usemtl aiStandardSurface1SG
f 1/99/1 97/115/2 98/117/3 3/118/4
s 2
usemtl initialShadingGroup
f 62/76/5 85/103/6 86/104/7 16/22/8
s 3
usemtl aiStandardSurface1SG
f 5/105/9 92/106/10 93/107/11 7/108/12
s 4
usemtl initialShadingGroup
f 7/7/13 93/111/14 94/112/15 55/68/16
s 5
usemtl aiStandardSurface1SG
f 54/2/17 8/4/18 6/6/19 53/11/20
s 6
f 7/1/21 55/3/22 56/5/23 5/13/24
s 7
f 3/118/25 98/117/26 99/119/27 19/120/28
s 8
f 53/11/29 6/6/30 17/12/31 52/16/32
s 9
f 92/106/33 5/105/34 20/109/35 91/110/36
s 10
f 5/13/37 56/5/38 57/14/39 20/15/40
s 11
f 9/121/41 81/122/42 82/138/43 13/140/44
s 12
f 64/17/45 11/23/46 15/24/47 63/27/48
s 13
f 87/128/49 12/129/50 16/130/51 86/131/52
s 14
f 12/18/53 61/25/54 62/26/55 16/29/56
s 8
f 52/16/32 17/12/31 21/28/57 51/31/58
s 7
f 19/120/28 99/119/27 100/141/59 23/142/60
s 10
f 20/15/40 57/14/39 58/30/61 24/33/62
s 9
f 91/110/36 20/109/35 24/132/63 90/133/64
s 8
f 51/31/58 21/28/57 25/32/65 50/35/66
s 7
f 23/142/60 100/141/59 101/143/67 27/144/68
s 10
f 24/33/62 58/30/61 59/34/69 28/37/70
s 9
f 90/133/64 24/132/63 28/151/71 89/152/72
s 8
f 50/35/66 25/32/65 29/36/73 49/39/74
s 7
f 27/144/68 101/143/67 102/145/75 31/161/76
s 10
f 28/37/70 59/34/69 60/38/77 32/47/78
s 9
f 89/152/72 28/151/71 32/153/79 88/154/80
s 8
f 64/17/81 49/39/74 29/36/73 11/23/82
s 7
f 31/161/76 102/145/75 81/122/83 9/121/84
s 10
f 32/47/78 60/38/77 61/25/85 12/18/86
s 9
f 88/154/80 32/153/79 12/129/87 87/128/88
s 8
f 26/40/89 34/41/90 33/42/91 30/43/92
f 22/44/93 35/46/94 34/41/90 26/40/89
f 18/58/95 36/59/96 35/46/94 22/44/93
f 4/60/97 37/61/98 36/59/96 18/58/95
s 5
f 2/62/99 38/63/100 37/61/101 4/60/102
s 4
usemtl initialShadingGroup
f 39/48/103 96/114/104 97/116/105 1/9/106
s 6
usemtl aiStandardSurface1SG
f 40/49/107 39/50/108 1/51/109 3/52/110
s 10
f 41/53/111 40/49/112 3/52/113 19/54/114
f 42/55/115 41/53/111 19/54/114 23/67/116
f 43/69/117 42/55/115 23/67/116 27/70/118
f 44/71/119 43/69/117 27/70/118 31/72/120
f 45/73/121 44/71/119 31/72/120 9/74/122
s 14
f 46/75/123 45/73/124 9/74/125 13/87/126
s 2
usemtl initialShadingGroup
f 13/19/127 82/100/128 83/101/129 46/56/130
s 12
usemtl aiStandardSurface1SG
f 10/64/131 48/66/132 47/78/133 14/79/134
s 8
f 30/43/92 33/42/91 48/66/135 10/64/136
f 66/80/137 50/35/66 49/39/74 65/81/138
f 67/82/139 51/31/58 50/35/66 66/80/137
f 68/83/140 52/16/32 51/31/58 67/82/139
f 69/84/141 53/11/29 52/16/32 68/83/140
s 5
f 70/86/142 54/2/17 53/11/20 69/84/143
s 4
usemtl initialShadingGroup
f 55/68/16 94/112/15 95/113/144 71/88/145
s 6
usemtl aiStandardSurface1SG
f 56/5/23 55/3/22 71/89/146 72/90/147
s 10
f 57/14/39 56/5/38 72/90/148 73/91/149
f 58/30/61 57/14/39 73/91/149 74/92/150
f 59/34/69 58/30/61 74/92/150 75/93/151
f 60/38/77 59/34/69 75/93/151 76/94/152
f 61/25/85 60/38/77 76/94/152 77/95/153
s 14
f 62/26/55 61/25/54 77/95/154 78/209/155
s 2
usemtl initialShadingGroup
f 78/96/156 84/102/157 85/103/6 62/76/5
s 12
usemtl aiStandardSurface1SG
f 80/98/158 64/17/45 63/27/48 79/210/159
s 8
f 80/98/160 65/81/138 49/39/74 64/17/81
f 34/41/90 66/80/137 65/81/138 33/42/91
f 35/46/94 67/82/139 66/80/137 34/41/90
f 36/59/96 68/83/140 67/82/139 35/46/94
f 37/61/98 69/84/141 68/83/140 36/59/96
s 5
f 38/63/100 70/86/142 69/84/143 37/61/101
s 4
usemtl initialShadingGroup
f 71/88/145 95/113/144 96/114/104 39/48/103
s 6
usemtl aiStandardSurface1SG
f 72/90/147 71/89/146 39/50/108 40/49/107
s 10
f 73/91/149 72/90/148 40/49/112 41/53/111
f 74/92/150 73/91/149 41/53/111 42/55/115
f 75/93/151 74/92/150 42/55/115 43/69/117
f 76/94/152 75/93/151 43/69/117 44/71/119
f 77/95/153 76/94/152 44/71/119 45/73/121
s 14
f 78/209/155 77/95/154 45/73/124 46/75/123
s 2
usemtl initialShadingGroup
f 46/56/130 83/101/129 84/102/157 78/96/156
s 12
usemtl aiStandardSurface1SG
f 48/66/132 80/98/158 79/210/159 47/78/133
s 8
f 48/66/135 33/42/91 65/81/138 80/98/160
s 11
f 81/122/42 103/163/161 104/164/162 82/138/43
s 2
usemtl initialShadingGroup
f 83/101/129 82/100/128 104/123/163 105/124/164
f 84/102/157 83/101/129 105/124/164 106/125/165
f 85/103/6 84/102/157 106/125/165 107/126/166
f 86/104/7 85/103/6 107/126/166 108/127/167
s 13
usemtl aiStandardSurface1SG
f 109/155/168 87/128/49 86/131/52 108/156/169
s 9
f 110/187/170 88/154/80 87/128/88 109/155/171
f 111/188/172 89/152/72 88/154/80 110/187/170
f 112/189/173 90/133/64 89/152/72 111/188/172
f 113/190/174 91/110/36 90/133/64 112/189/173
f 114/191/175 92/106/33 91/110/36 113/190/174
s 3
f 93/107/11 92/106/10 114/191/176 115/192/177
s 4
usemtl initialShadingGroup
f 94/112/15 93/111/14 115/134/178 116/135/179
f 95/113/144 94/112/15 116/135/179 117/136/180
f 96/114/104 95/113/144 117/136/180 118/137/181
f 97/116/105 96/114/104 118/137/181 119/139/182
s 1
usemtl aiStandardSurface1SG
f 98/117/3 97/115/2 119/165/183 120/166/184
s 7
f 99/119/27 98/117/26 120/166/185 121/167/186
f 100/141/59 99/119/27 121/167/186 122/168/187
f 101/143/67 100/141/59 122/168/187 123/169/188
f 102/145/75 101/143/67 123/169/188 124/170/189
f 81/122/83 102/145/75 124/170/189 103/163/190
s 11
f 103/163/161 125/171/191 126/172/192 104/164/162
s 2
usemtl initialShadingGroup
f 105/124/164 104/123/163 126/146/193 127/147/194
f 106/125/165 105/124/164 127/147/194 128/148/195
f 107/126/166 106/125/165 128/148/195 129/149/196
f 108/127/167 107/126/166 129/149/196 130/150/197
s 13
usemtl aiStandardSurface1SG
f 131/193/198 109/155/168 108/156/169 130/194/199
s 9
f 132/195/200 110/187/170 109/155/171 131/193/201
f 133/196/202 111/188/172 110/187/170 132/195/200
f 134/197/203 112/189/173 111/188/172 133/196/202
f 135/198/204 113/190/174 112/189/173 134/197/203
f 136/199/205 114/191/175 113/190/174 135/198/204
s 3
f 115/192/177 114/191/176 136/199/206 137/200/207
s 4
usemtl initialShadingGroup
f 116/135/179 115/134/178 137/157/208 138/158/209
f 117/136/180 116/135/179 138/158/209 139/159/210
f 118/137/181 117/136/180 139/159/210 140/160/211
f 119/139/182 118/137/181 140/160/211 141/162/212
s 1
usemtl aiStandardSurface1SG
f 120/166/184 119/165/183 141/173/213 142/174/214
s 7
f 121/167/186 120/166/185 142/174/215 143/175/216
f 122/168/187 121/167/186 143/175/216 144/176/217
f 123/169/188 122/168/187 144/176/217 145/177/218
f 124/170/189 123/169/188 145/177/218 146/178/219
f 103/163/190 124/170/189 146/178/219 125/171/220
s 11
f 125/171/191 10/179/221 14/180/222 126/172/192
s 2
usemtl initialShadingGroup
f 127/147/194 126/146/193 14/20/223 47/57/224
f 128/148/195 127/147/194 47/57/224 79/97/225
f 129/149/196 128/148/195 79/97/225 63/77/226
f 130/150/197 129/149/196 63/77/226 15/21/227
s 13
usemtl aiStandardSurface1SG
f 11/201/228 131/193/198 130/194/199 15/202/229
s 9
f 29/203/230 132/195/200 131/193/201 11/201/231
f 25/204/232 133/196/202 132/195/200 29/203/230
f 21/205/233 134/197/203 133/196/202 25/204/232
f 17/206/234 135/198/204 134/197/203 21/205/233
f 6/207/235 136/199/205 135/198/204 17/206/234
s 3
f 137/200/207 136/199/206 6/207/236 8/208/237
s 4
usemtl initialShadingGroup
f 138/158/209 137/157/208 8/8/238 54/65/239
f 139/159/210 138/158/209 54/65/239 70/85/240
f 140/160/211 139/159/210 70/85/240 38/45/241
f 141/162/212 140/160/211 38/45/241 2/10/242
s 1
usemtl aiStandardSurface1SG
f 142/174/214 141/173/213 2/181/243 4/182/244
s 7
f 143/175/216 142/174/215 4/182/245 18/183/246
f 144/176/217 143/175/216 18/183/246 22/184/247
f 145/177/218 144/176/217 22/184/247 26/185/248
f 146/178/219 145/177/218 26/185/248 30/186/249
f 125/171/220 146/178/219 30/186/249 10/179/250
