# This file uses centimeters as units for non-parametric coordinates.

mtllib Pin_Ball_Table.mtl
g default
v -12.709332 0.350079 -8.088749
v -12.935400 0.052791 -8.433060
v -13.206832 0.052791 -8.337965
v -13.525242 0.052791 -8.256354
v -13.859464 0.052791 -8.082137
v -14.176781 0.052791 -7.832366
v -14.446134 0.052791 -7.531492
v -14.641153 0.052791 -7.208965
v -14.638273 0.052791 -6.896358
v -14.525735 0.052791 -6.624269
v -14.360541 0.379064 -6.435815
v -12.672288 1.576457 -8.417816
v -12.935400 1.621641 -8.433060
v -13.229152 1.580569 -8.425289
v -13.525242 1.633235 -8.256354
v -13.859464 1.633235 -8.082137
v -14.176781 1.633235 -7.832366
v -14.446134 1.633235 -7.531492
v -14.641153 1.633235 -7.208965
v -14.788136 1.595064 -6.896358
v -14.781094 1.596439 -6.624269
v -14.716835 1.620951 -6.399147
v -13.051794 0.415735 -8.082552
v -12.954864 1.633235 -8.261844
v -13.217536 0.409305 -8.070458
v -13.183353 1.633235 -8.187045
v -13.431787 0.429543 -8.012310
v -13.431787 1.633235 -8.104187
v -13.717314 0.422398 -7.862150
v -13.761930 1.633235 -7.925063
v -13.997433 0.424068 -7.641284
v -14.102858 1.633235 -7.697124
v -14.235583 0.430790 -7.375704
v -14.341341 1.633235 -7.420215
v -14.331083 0.410358 -7.100255
v -14.449724 1.633235 -7.129400
v -14.369381 0.391921 -6.856558
v -14.543768 1.633235 -6.856558
v -14.362209 0.388380 -6.641605
v -14.588227 1.633235 -6.641605
v -15.881887 -0.010087 9.612558
v 15.881887 -0.010087 9.612558
v -15.881887 -0.010087 -9.612558
v 15.881887 -0.010087 -9.612558
v -14.389728 0.424836 8.108773
v 14.389728 0.424836 8.108773
v 14.389728 0.424836 -8.108773
v -14.389728 0.424836 -8.108773
v -15.881887 0.917296 9.612558
v -15.721901 1.582371 9.448687
v -15.335655 1.857853 9.053062
v 15.881887 0.917296 9.612558
v 15.721901 1.582371 9.448687
v 15.335655 1.857853 9.053062
v -15.881887 0.917296 -9.612558
v -15.721901 1.582371 -9.448687
v -15.335655 1.857853 -9.053062
v 15.881887 0.917296 -9.612558
v 15.721901 1.582371 -9.448687
v 15.335655 1.857853 -9.053062
v -15.201120 1.857853 8.817687
v -14.814873 1.582371 8.422065
v -14.654881 0.917296 8.258191
v 15.201120 1.857853 8.817687
v 14.814873 1.582371 8.422065
v 14.654881 0.917296 8.258191
v 15.201120 1.857853 -8.817687
v 14.814873 1.582371 -8.422065
v 14.654881 0.917296 -8.258191
v -15.201120 1.857853 -8.817687
v -14.814873 1.582371 -8.422065
v -14.654881 0.917296 -8.258191
v 14.389728 0.424836 -6.926199
v -14.389728 0.424836 -6.926199
v -14.654881 0.917296 -7.053825
v -14.814873 1.582371 -7.193799
v -15.201120 1.857853 -7.531725
v -15.335655 1.857853 -7.732774
v -15.721901 1.582371 -8.070700
v -15.881887 0.917296 -8.210672
v -15.881887 -0.010087 -8.210672
v 15.881887 -0.010087 -8.210672
v 15.881887 0.917296 -8.210672
v 15.721901 1.582371 -8.070700
v 15.335655 1.857853 -7.732774
v 15.201120 1.857853 -7.531725
v 14.602300 1.600109 -7.059999
v 14.522305 0.959559 -6.990012
v 14.389728 0.424836 -6.645276
v -14.389728 0.424836 -6.645276
v -14.654881 0.917296 -6.767726
v -14.814873 1.582371 -6.902022
v -15.201120 1.857853 -7.226243
v -15.335655 1.857853 -7.419136
v -15.721901 1.582371 -7.743357
v -15.881887 0.917296 -7.877652
v -15.881887 -0.010087 -7.877652
v 15.881887 -0.010087 -7.877652
v 15.881887 0.917296 -7.877652
v 15.721901 1.582371 -7.743357
v 15.335655 1.857853 -7.419136
v 15.201120 1.857853 -7.226243
v 14.602300 1.600109 -6.672894
v 14.522305 0.959559 -6.706501
v -10.574048 1.575465 -6.939650
v -10.574048 1.575465 -6.648053
v -11.152759 0.997572 -6.651431
v -11.496461 0.424836 -6.645276
v -11.496461 0.424836 8.108773
v -11.708302 0.917296 8.258191
v -11.836125 1.582371 8.422065
v -12.144711 1.857853 8.817687
v -12.252196 1.857853 9.053062
v -12.560782 1.582371 9.448687
v -12.688601 0.917296 9.612558
v -12.688601 -0.010087 9.612558
v -12.688601 -0.010087 -7.877652
v -12.688601 -0.010087 -8.210672
v -12.688601 -0.010087 -9.612558
v -12.688601 0.917296 -9.612558
v -12.560782 1.582371 -9.448687
v -12.252196 1.857853 -9.053062
v -12.144711 1.857853 -8.817687
v -11.836125 1.582371 -8.422065
v -11.708302 0.917296 -8.258191
v -11.496461 0.424836 -8.108773
v -11.496461 0.424836 -6.926199
v -11.152759 0.997572 -6.932614
vt 0.425000 0.312500
vt 0.437500 0.312500
vt 0.450000 0.312500
vt 0.462500 0.312500
vt 0.475000 0.312500
vt 0.487500 0.312500
vt 0.500000 0.312500
vt 0.512500 0.312500
vt 0.525000 0.312500
vt 0.537500 0.312500
vt 0.550000 0.312500
vt 0.425000 0.688440
vt 0.437500 0.688440
vt 0.450000 0.688440
vt 0.462500 0.688440
vt 0.475000 0.688440
vt 0.487500 0.688440
vt 0.500000 0.688440
vt 0.512500 0.688440
vt 0.525000 0.688440
vt 0.537500 0.688440
vt 0.550000 0.688440
vt 0.425000 0.312500
vt 0.437500 0.312500
vt 0.437500 0.688440
vt 0.425000 0.688440
vt 0.450000 0.312500
vt 0.450000 0.688440
vt 0.462500 0.312500
vt 0.462500 0.688440
vt 0.475000 0.312500
vt 0.475000 0.688440
vt 0.487500 0.312500
vt 0.487500 0.688440
vt 0.500000 0.312500
vt 0.500000 0.688440
vt 0.512500 0.312500
vt 0.512500 0.688440
vt 0.525000 0.312500
vt 0.525000 0.688440
vt 0.537500 0.312500
vt 0.537500 0.688440
vt 0.550000 0.312500
vt 0.550000 0.688440
vt 0.437500 0.312500
vt 0.437500 0.688440
vt 0.450000 0.312500
vt 0.450000 0.688440
vt 0.462500 0.312500
vt 0.462500 0.688440
vt 0.475000 0.312500
vt 0.475000 0.688440
vt 0.487500 0.312500
vt 0.487500 0.688440
vt 0.500000 0.312500
vt 0.500000 0.688440
vt 0.512500 0.312500
vt 0.512500 0.688440
vt 0.525000 0.312500
vt 0.525000 0.688440
vt 0.537500 0.312500
vt 0.537500 0.688440
vt 0.400133 0.250000
vt 0.625000 0.250000
vt 0.625000 0.477440
vt 0.400133 0.477440
vt 0.400133 0.772560
vt 0.625000 0.772560
vt 0.625000 1.000000
vt 0.400133 1.000000
vt 0.400133 0.000000
vt 0.625000 0.000000
vt 0.625000 0.186717
vt 0.400133 0.186717
vt 0.400133 0.563283
vt 0.625000 0.563282
vt 0.625000 0.750000
vt 0.400133 0.750000
vt 0.852440 0.000000
vt 0.852440 0.186717
vt 0.147560 0.000000
vt 0.375000 0.000000
vt 0.375000 0.186717
vt 0.147560 0.186717
vt 0.400378 0.250000
vt 0.624664 0.250000
vt 0.625000 0.250565
vt 0.400133 0.250648
vt 0.624688 0.477440
vt 0.625000 0.476892
vt 0.624690 0.500000
vt 0.400404 0.500000
vt 0.400133 0.499426
vt 0.625000 0.499343
vt 0.375333 0.477440
vt 0.375310 0.250000
vt 0.375000 0.250658
vt 0.375000 0.476985
vt 0.400133 0.250000
vt 0.625000 0.250000
vt 0.625000 0.477440
vt 0.625000 0.500000
vt 0.400133 0.500000
vt 0.400133 0.500000
vt 0.625000 0.500000
vt 0.375000 0.477440
vt 0.375000 0.250000
vt 0.375000 0.250000
vt 0.375000 0.477440
vt 0.375000 0.250000
vt 0.147560 0.250000
vt 0.375000 0.477440
vt 0.400133 0.250000
vt 0.625000 0.250000
vt 0.400133 0.500000
vt 0.625000 0.500000
vt 0.625000 0.477440
vt 0.852440 0.250000
vt 0.375000 0.250000
vt 0.375000 0.477440
vt 0.400133 0.250000
vt 0.625000 0.250000
vt 0.625000 0.477440
vt 0.625000 0.500000
vt 0.400133 0.500000
vt 0.400133 0.481770
vt 0.625000 0.481770
vt 0.375000 0.500000
vt 0.375000 0.481770
vt 0.375000 0.481770
vt 0.375000 0.500000
vt 0.375000 0.481770
vt 0.375000 0.500000
vt 0.375000 0.481294
vt 0.375000 0.499435
vt 0.375336 0.500000
vt 0.375334 0.481770
vt 0.375000 0.481770
vt 0.375000 0.500000
vt 0.143230 0.186717
vt 0.143230 0.250000
vt 0.125000 0.250000
vt 0.125000 0.186717
vt 0.125000 0.000000
vt 0.143230 0.000000
vt 0.625000 0.768230
vt 0.400133 0.768230
vt 0.856770 0.186717
vt 0.856770 0.000000
vt 0.875000 0.000000
vt 0.875000 0.186717
vt 0.856770 0.250000
vt 0.875000 0.250000
vt 0.624688 0.481770
vt 0.625000 0.481770
vt 0.625000 0.481202
vt 0.625000 0.481770
vt 0.625000 0.481770
vt 0.400133 0.477440
vt 0.625000 0.477440
vt 0.625000 0.481770
vt 0.400133 0.481770
vt 0.625000 0.477440
vt 0.400133 0.477440
vt 0.625000 0.481770
vt 0.400133 0.481770
vt 0.375000 0.772560
vt 0.375000 1.000000
vt 0.375000 0.768230
vt 0.375000 0.750000
vt 0.375000 0.563283
vn 0.280031 0.180768 0.942818
vn 0.280031 0.180768 0.942818
vn 0.255770 0.153913 0.954407
vn 0.254667 0.152696 0.954897
vn 0.255414 0.091343 0.962507
vn 0.257318 0.090672 0.962063
vn 0.397661 0.070713 0.914803
vn 0.398966 0.070618 0.914242
vn 0.531229 0.070931 0.844254
vn 0.531282 0.070936 0.844220
vn 0.669861 0.084830 0.737624
vn 0.665752 0.084405 0.741384
vn 0.848856 0.096340 0.519771
vn 0.848840 0.096340 0.519798
vn 0.948682 0.106724 0.297678
vn 0.949182 0.107119 0.295938
vn 0.974970 0.136773 0.175290
vn 0.974970 0.136773 0.175289
vn 0.963515 0.189815 0.188704
vn 0.963578 0.189742 0.188458
vn 0.936827 0.215308 0.275676
vn 0.936827 0.215308 0.275676
vn 0.622129 -0.099664 -0.776546
vn 0.130992 -0.060320 -0.989547
vn 0.235895 -0.069924 -0.969260
vn 0.622129 -0.099664 -0.776546
vn -0.287471 -0.029011 -0.957350
vn -0.287657 -0.029011 -0.957294
vn -0.424311 -0.013340 -0.905418
vn -0.426412 -0.012609 -0.904441
vn -0.545429 0.000000 -0.838157
vn -0.545429 0.000000 -0.838157
vn -0.684366 0.000000 -0.729139
vn -0.684366 0.000000 -0.729139
vn -0.801959 0.000000 -0.597380
vn -0.801959 0.000000 -0.597380
vn -0.920756 -0.021615 -0.389539
vn -0.918540 -0.020764 -0.394784
vn -0.996017 -0.086667 -0.020946
vn -0.995953 -0.085324 -0.028225
vn -0.931873 -0.145923 0.332143
vn -0.904606 -0.155458 0.396889
vn -0.787069 -0.180592 0.589838
vn -0.787069 -0.180592 0.589838
vn -0.123480 -0.709565 0.693737
vn 0.085665 -0.659081 0.747177
vn 0.090051 -0.657661 0.747912
vn -0.012968 0.993109 -0.116476
vn -0.055728 0.989693 -0.131915
vn 0.171715 0.984020 -0.047111
vn 0.190568 -0.594092 0.781497
vn 0.191488 -0.598586 0.777835
vn -0.035693 0.988613 -0.146185
vn -0.026435 0.988948 -0.145887
vn 0.302554 -0.576873 0.758735
vn 0.300503 -0.576936 0.759502
vn 0.013521 0.997682 -0.066694
vn 0.015236 0.997055 -0.075157
vn 0.448573 -0.575445 0.683846
vn 0.448787 -0.575451 0.683700
vn 0.000000 1.000000 0.000000
vn 0.000000 1.000000 0.000000
vn 0.558184 -0.575031 0.598139
vn 0.557879 -0.575044 0.598411
vn 0.000000 1.000000 0.000000
vn 0.000000 1.000000 0.000000
vn 0.664112 -0.600585 0.445256
vn 0.662906 -0.600007 0.447825
vn 0.000000 1.000000 0.000000
vn 0.000000 1.000000 0.000000
vn 0.745358 -0.638183 0.192778
vn 0.744252 -0.637712 0.198527
vn -0.054313 0.998411 0.015009
vn -0.052781 0.998500 0.014586
vn 0.800166 -0.594785 -0.077239
vn 0.795087 -0.603593 -0.059271
vn -0.127761 0.991779 0.007220
vn -0.124010 0.992237 0.009338
vn 0.849136 -0.503167 -0.160599
vn 0.836152 -0.515162 -0.188305
vn -0.174674 0.984291 -0.025696
vn -0.172510 0.984754 -0.022360
vn 0.898070 -0.439013 -0.027154
vn -0.191653 0.980084 -0.052008
vn 0.000000 1.000000 0.000000
vn 0.000000 1.000000 0.000000
vn 0.000000 1.000000 0.000000
vn 0.000000 1.000000 0.000000
vn 0.000000 -1.000000 0.000000
vn 0.000000 -1.000000 0.000000
vn 0.000000 -1.000000 0.000000
vn 0.000000 -1.000000 0.000000
vn 0.000000 0.000000 1.000000
vn 0.000000 0.000000 1.000000
vn 0.000000 0.092886 0.995677
vn 0.000000 0.096306 0.995352
vn 0.000000 0.096306 -0.995352
vn 0.000000 0.092886 -0.995677
vn 0.000000 0.000000 -1.000000
vn 0.000000 0.000000 -1.000000
vn 1.000000 0.000000 0.000000
vn 1.000000 0.000000 0.000000
vn 0.995734 0.092268 0.000000
vn 0.995917 0.090269 0.000000
vn -1.000000 0.000000 0.000000
vn -1.000000 0.000000 0.000000
vn -0.995917 0.090269 0.000000
vn -0.995734 0.092268 0.000000
vn 0.000000 0.889399 0.457132
vn 0.203542 0.920013 0.334884
vn -0.100044 0.978101 -0.182508
vn 0.000000 0.946273 -0.323370
vn 0.543684 0.839290 0.000000
vn -0.286909 0.957955 0.002140
vn 0.022656 0.884988 -0.465062
vn 0.000000 0.889399 -0.457132
vn 0.000000 0.946273 0.323370
vn -0.012518 0.964003 0.265595
vn -0.543685 0.839289 0.000000
vn -0.474385 0.875984 0.087235
vn 0.267300 0.962178 -0.052579
vn 0.350282 0.936644 0.000000
vn 0.000000 0.257297 -0.966332
vn 0.000000 0.255188 -0.966891
vn 0.000000 0.290341 -0.956923
vn 0.000000 0.290341 -0.956923
vn -0.968763 0.247822 0.009089
vn -0.965506 0.260238 0.008616
vn -0.932659 0.360729 0.004674
vn -0.932659 0.360729 0.004674
vn 0.000000 0.255188 0.966891
vn -0.000000 0.257297 0.966332
vn 0.000000 0.290341 0.956923
vn 0.000000 0.290341 0.956923
vn 0.944466 0.328609 0.000000
vn 0.945802 0.324744 0.000000
vn 0.880484 0.474076 0.000000
vn 0.880484 0.474076 0.000000
vn -0.972265 0.233883 0.000000
vn -0.972265 0.233883 0.000000
vn -0.580671 0.814138 0.000000
vn -0.580671 0.814138 0.000000
vn 0.000000 0.820647 0.571436
vn 0.000000 0.820646 0.571436
vn 0.000000 0.239241 0.970960
vn 0.000000 0.239241 0.970960
vn 0.000000 0.239241 -0.970960
vn 0.000000 0.239241 -0.970960
vn 0.000000 0.820647 -0.571436
vn 0.000000 0.820646 -0.571436
vn 0.580670 0.814139 0.000000
vn 0.580670 0.814139 0.000000
vn 0.972265 0.233883 0.000000
vn 0.972265 0.233883 0.000000
vn 0.580667 0.814141 0.000000
vn 0.580667 0.814141 0.000000
vn 0.972263 0.233889 0.000000
vn 0.972263 0.233889 0.000000
vn 0.000000 0.239244 -0.970960
vn 0.000000 0.239244 -0.970960
vn 0.000000 0.820645 -0.571438
vn 0.000000 0.820645 -0.571438
vn -0.983769 0.179064 0.011653
vn -0.983769 0.179064 0.011653
vn -0.475572 0.879669 0.003748
vn -0.474803 0.880084 0.003711
vn 0.000000 0.239244 0.970960
vn -0.000000 0.239244 0.970960
vn 0.000000 0.820645 0.571438
vn 0.000000 0.820645 0.571438
vn 0.000000 1.000000 0.000000
vn 0.000000 1.000000 0.000000
vn 0.000000 1.000000 0.000000
vn 0.000000 1.000000 0.000000
vn 0.945802 0.324744 0.000000
vn 0.935357 0.353706 0.000000
vn 0.880484 0.474077 0.000000
vn 0.880484 0.474076 0.000000
vn 0.972263 0.233890 0.000000
vn 0.972263 0.233891 0.000000
vn 0.517686 0.855571 0.000000
vn 0.580668 0.814141 0.000000
vn 0.580668 0.814141 0.000000
vn 0.085284 0.974126 0.209297
vn -0.160466 0.915815 -0.368149
vn -0.403936 0.914787 0.000000
vn -0.580670 0.814139 0.000000
vn -0.580669 0.814139 0.000000
vn -0.994590 0.103877 0.000000
vn -0.972265 0.233882 0.000000
vn -0.972265 0.233882 0.000000
vn -0.995917 0.090269 0.000000
vn -1.000000 0.000000 0.000000
vn -1.000000 0.000000 0.000000
vn 0.000000 -1.000000 0.000000
vn 0.000000 -1.000000 0.000000
vn 0.000000 -1.000000 0.000000
vn 0.000000 -1.000000 0.000000
vn 0.994590 0.103877 0.000000
vn 1.000000 0.000000 0.000000
vn 1.000000 0.000000 0.000000
vn 0.995917 0.090269 0.000000
vn 0.972265 0.233882 0.000000
vn 0.972265 0.233882 0.000000
vn 0.403936 0.914787 0.000000
vn 0.580670 0.814139 0.000000
vn 0.580670 0.814139 0.000000
vn -0.446832 0.893853 -0.036978
vn -0.455988 0.889638 -0.024894
vn -0.506851 0.860781 -0.046454
vn -0.963888 0.247806 -0.097533
vn -0.978851 0.156277 -0.132013
vn -0.978851 0.156277 -0.132013
vn -0.968277 0.226391 -0.105769
vn -0.934939 0.350261 -0.056617
vn -0.934940 0.350261 -0.056617
vn -0.000979 1.000000 0.000000
vn -0.000979 1.000000 0.000000
vn -0.000979 1.000000 0.000000
vn -0.000979 1.000000 0.000000
vn -0.992292 0.123922 0.000000
vn -0.992292 0.123922 0.000000
vn -0.992292 0.123922 0.000000
vn -0.992292 0.123922 0.000000
vn -0.970611 0.240652 0.000000
vn -0.970611 0.240652 0.000000
vn -0.970611 0.240652 0.000000
vn -0.970611 0.240652 0.000000
vn 0.001111 0.060254 0.998183
vn 0.001111 0.060254 0.998182
vn 0.001374 0.007261 0.999973
vn 0.001242 0.033984 0.999422
vn 0.970612 -0.240651 0.000000
vn 0.970612 -0.240651 0.000000
vn 0.970612 -0.240651 0.000000
vn 0.970612 -0.240651 0.000000
vn -0.001157 -0.062791 -0.998026
vn -0.001157 -0.062791 -0.998026
vn -0.001833 -0.062333 -0.998054
vn -0.002519 -0.061869 -0.998081
vn 0.001562 -0.031185 0.999512
vn 0.001562 -0.031185 0.999512
vn 0.992292 -0.123922 0.000000
vn 0.992292 -0.123922 0.000000
vn 0.992292 -0.123922 0.000000
vn 0.992292 -0.123922 0.000000
vn -0.003505 -0.061201 -0.998119
vn -0.003505 -0.061201 -0.998119
vn 0.000000 1.000000 0.000000
vn 0.000000 1.000000 0.000000
vn 0.000000 0.255188 -0.966891
vn 0.000000 0.290341 -0.956923
vn 0.000000 0.239244 -0.970960
vn 0.000000 0.820645 -0.571438
vn 0.000000 0.820647 0.571436
vn 0.000000 0.239241 0.970960
vn 0.000000 0.092886 0.995677
vn 0.000000 0.000000 1.000000
vn 0.000000 -1.000000 0.000000
vn 0.000000 -1.000000 0.000000
vn 0.000000 -1.000000 0.000000
vn 0.000000 -1.000000 0.000000
vn 0.000000 0.092886 -0.995677
vn 0.000000 0.000000 -1.000000
vn 0.000000 0.239241 -0.970960
vn 0.000000 0.820647 -0.571436
vn 0.000000 0.820645 0.571438
vn -0.000000 0.239244 0.970960
vn -0.000000 0.255188 0.966891
vn 0.000000 0.290341 0.956923
vn 0.000000 1.000000 0.000000
vn 0.000000 1.000000 0.000000
vn 0.000000 1.000000 0.000000
vn 0.000000 1.000000 0.000000
vn -0.173413 0.984849 0.000000
vn -0.175223 0.984529 0.000000
vn -0.779641 0.626226 0.000000
vn -0.779076 0.626930 0.000000
vn -0.706607 0.707606 0.000000
vn -0.706607 0.707606 0.000000
s 1
g pCylinder3
usemtl initialShadingGroup
f 1/1/1 12/12/2 24/46/3 23/45/4
f 23/45/4 24/46/3 26/48/5 25/47/6
f 25/47/6 26/48/5 28/50/7 27/49/8
f 27/49/8 28/50/7 30/52/9 29/51/10
f 29/51/10 30/52/9 32/54/11 31/53/12
f 31/53/12 32/54/11 34/56/13 33/55/14
f 33/55/14 34/56/13 36/58/15 35/57/16
f 35/57/16 36/58/15 38/60/17 37/59/18
f 37/59/18 38/60/17 40/62/19 39/61/20
f 39/61/20 40/62/19 22/22/21 11/11/22
s 2
f 1/23/23 2/24/24 13/25/25 12/26/26
f 2/24/24 3/27/27 14/28/28 13/25/25
f 3/27/27 4/29/29 15/30/30 14/28/28
f 4/29/29 5/31/31 16/32/32 15/30/30
f 5/31/31 6/33/33 17/34/34 16/32/32
f 6/33/33 7/35/35 18/36/36 17/34/34
f 7/35/35 8/37/37 19/38/38 18/36/36
f 8/37/37 9/39/39 20/40/40 19/38/38
f 9/39/39 10/41/41 21/42/42 20/40/40
f 10/41/41 11/43/43 22/44/44 21/42/42
s 3
f 1/1/45 23/45/46 2/2/47
s 4
f 13/13/48 24/46/49 12/12/50
s 3
f 2/2/47 23/45/46 25/47/51 3/3/52
s 4
f 14/14/53 26/48/54 24/46/49 13/13/48
s 3
f 3/3/52 25/47/51 27/49/55 4/4/56
s 4
f 15/15/57 28/50/58 26/48/54 14/14/53
s 3
f 4/4/56 27/49/55 29/51/59 5/5/60
s 4
f 16/16/61 30/52/62 28/50/58 15/15/57
s 3
f 5/5/60 29/51/59 31/53/63 6/6/64
s 4
f 17/17/65 32/54/66 30/52/62 16/16/61
s 3
f 6/6/64 31/53/63 33/55/67 7/7/68
s 4
f 18/18/69 34/56/70 32/54/66 17/17/65
s 3
f 7/7/68 33/55/67 35/57/71 8/8/72
s 4
f 19/19/73 36/58/74 34/56/70 18/18/69
s 3
f 8/8/72 35/57/71 37/59/75 9/9/76
s 4
f 20/20/77 38/60/78 36/58/74 19/19/73
s 3
f 9/9/76 37/59/75 39/61/79 10/10/80
s 4
f 21/21/81 40/62/82 38/60/78 20/20/77
s 3
f 10/10/80 39/61/79 11/11/83
s 4
f 22/22/84 40/62/82 21/21/81
s 5
f 109/63/85 46/64/86 89/65/87 108/66/88
s 6
f 117/67/89 98/68/90 42/69/91 116/70/92
s 7
f 116/71/93 42/72/94 52/73/95 115/74/96
s 8
f 120/75/97 58/76/98 44/77/99 119/78/100
s 9
f 42/72/101 98/79/102 99/80/103 52/73/104
s 10
f 97/81/105 41/82/106 49/83/107 96/84/108
s 11
f 113/85/109 54/86/110 64/87/111 112/88/112
f 54/86/110 101/89/113 102/90/114 64/87/111
f 60/91/115 122/92/116 123/93/117 67/94/118
f 94/95/119 51/96/120 61/97/121 93/98/122
s 14
f 110/99/123 66/100/124 46/64/125 109/63/126
s 15
f 66/100/127 104/101/128 89/65/129 46/64/130
s 16
f 69/102/131 125/103/132 126/104/133 47/105/134
s 17
f 91/106/135 63/107/136 45/108/137 90/109/138
s 10
f 49/83/107 50/110/139 95/111/140 96/84/108
s 11
f 50/110/141 51/96/120 94/95/119 95/112/142
f 113/85/109 114/113/143 53/114/144 54/86/110
s 7
f 114/113/145 115/74/96 52/73/95 53/114/146
s 8
f 120/75/97 121/115/147 59/116/148 58/76/98
s 11
f 121/115/149 122/92/116 60/91/115 59/116/150
f 54/86/110 53/114/151 100/117/152 101/89/113
s 9
f 53/114/153 52/73/104 99/80/103 100/118/154
s 11
f 61/97/121 62/119/155 92/120/156 93/98/122
s 17
f 62/119/157 63/107/136 91/106/135 92/120/158
s 14
f 110/99/123 111/121/159 65/122/160 66/100/124
s 11
f 111/121/161 112/88/112 64/87/111 65/122/162
s 15
f 66/100/127 65/122/163 103/123/164 104/101/128
s 11
f 65/122/165 64/87/111 102/90/114 103/123/166
s 16
f 69/102/131 68/124/167 124/125/168 125/103/132
s 11
f 68/124/169 67/94/118 123/93/117 124/125/170
s 18
f 127/126/171 73/127/172 47/105/173 126/104/174
s 17
f 72/128/175 75/129/176 74/130/177 48/131/178
f 76/132/179 75/129/176 72/128/175 71/133/180
s 11
f 77/134/181 76/132/182 71/133/183 70/135/184
f 57/136/185 78/137/186 77/134/181 70/135/184
f 79/138/187 78/137/186 57/136/185 56/139/188
s 10
f 80/140/189 79/141/190 56/142/191 55/143/192
f 43/144/193 81/145/194 80/140/189 55/143/192
s 6
f 119/78/195 44/77/196 82/146/197 118/147/198
s 9
f 83/148/199 82/149/200 44/150/201 58/151/202
f 84/152/203 83/148/199 58/151/202 59/153/204
s 11
f 85/154/205 84/155/206 59/116/207 60/91/115
f 86/156/208 85/154/205 60/91/115 67/94/118
f 87/157/209 86/156/208 67/94/118 68/124/210
s 20
f 88/158/211 87/157/212 68/124/213 69/102/214
f 73/127/215 88/158/211 69/102/214 47/105/216
s off
f 106/159/217 103/160/218 87/161/219 105/162/220
s 17
f 75/129/176 91/106/135 90/109/138 74/130/177
f 92/120/158 91/106/135 75/129/176 76/132/179
s 11
f 93/98/122 92/120/156 76/132/182 77/134/181
f 78/137/186 94/95/119 93/98/122 77/134/181
f 95/112/142 94/95/119 78/137/186 79/138/187
s 10
f 96/84/108 95/111/140 79/141/190 80/140/189
f 81/145/194 97/81/105 96/84/108 80/140/189
s 6
f 118/147/198 82/146/197 98/68/90 117/67/89
s 9
f 99/80/103 98/79/102 82/149/200 83/148/199
f 100/118/154 99/80/103 83/148/199 84/152/203
s 11
f 101/89/113 100/117/152 84/155/206 85/154/205
f 102/90/114 101/89/113 85/154/205 86/156/208
f 103/123/166 102/90/114 86/156/208 87/157/209
s off
f 104/101/221 103/123/222 87/157/223 88/158/224
f 89/65/225 104/101/226 88/158/227 73/127/228
s 21
f 108/66/229 89/65/230 104/163/231 107/164/232
s off
f 89/65/233 73/127/234 88/165/235 104/163/236
s 22
f 73/127/237 127/126/238 128/166/239 88/165/240
s 21
f 107/164/232 104/163/231 103/160/241 106/159/242
s off
f 104/163/243 88/165/244 87/161/245 103/160/246
s 22
f 88/165/240 128/166/239 105/162/247 87/161/248
s 5
f 45/108/249 109/63/85 108/66/88 90/109/250
s 14
f 63/107/251 110/99/123 109/63/126 45/108/252
f 63/107/251 62/119/253 111/121/159 110/99/123
s 11
f 62/119/254 61/97/121 112/88/112 111/121/161
f 51/96/120 113/85/109 112/88/112 61/97/121
f 51/96/120 50/110/255 114/113/143 113/85/109
s 7
f 50/110/256 49/83/257 115/74/96 114/113/145
f 41/82/258 116/71/93 115/74/96 49/83/257
s 6
f 97/167/259 117/67/89 116/70/92 41/168/260
f 81/169/261 118/147/198 117/67/89 97/167/259
f 43/170/262 119/78/195 118/147/198 81/169/261
s 8
f 55/171/263 120/75/97 119/78/100 43/170/264
f 55/171/263 56/139/265 121/115/147 120/75/97
s 11
f 56/139/266 57/136/185 122/92/116 121/115/149
f 123/93/117 122/92/116 57/136/185 70/135/184
f 124/125/170 123/93/117 70/135/184 71/133/267
s 16
f 125/103/132 124/125/168 71/133/268 72/128/269
f 126/104/133 125/103/132 72/128/269 48/131/270
s 18
f 74/130/271 127/126/171 126/104/174 48/131/272
s 23
f 74/130/273 90/109/274 108/66/275 127/126/276
f 127/126/276 108/66/275 107/164/277 128/166/278
f 128/166/278 107/164/277 106/159/279 105/162/280
